<?xml version="1.0" encoding="utf-8"?>
<svg xmlns="http://www.w3.org/2000/svg" viewBox="0 0 500 500">
  <path d="M 500.315 249.112 C 500.315 387.181 388.18 499.107 249.854 499.107 C 111.529 499.107 -0.606 387.181 -0.606 249.112 C -0.606 111.045 111.529 -0.882 249.854 -0.882 C 388.18 -0.882 500.315 111.045 500.315 249.112 Z" fill="#F23C0B" style="stroke-width: 1;"/>
  <path d="M 103.367 286.366 C 104.993 286.358 104.993 286.358 106.652 286.349 C 107.842 286.353 109.033 286.356 110.259 286.36 C 111.524 286.356 112.79 286.353 114.093 286.349 C 117.607 286.338 121.121 286.341 124.635 286.345 C 128.423 286.347 132.212 286.338 136.001 286.331 C 143.425 286.318 150.848 286.316 158.272 286.319 C 164.305 286.32 170.339 286.319 176.372 286.314 C 177.23 286.314 178.088 286.313 178.973 286.313 C 180.716 286.311 182.459 286.31 184.202 286.309 C 200.557 286.298 216.911 286.3 233.266 286.306 C 248.232 286.311 263.198 286.3 278.163 286.281 C 293.525 286.262 308.886 286.254 324.248 286.257 C 332.874 286.259 341.501 286.257 350.127 286.243 C 357.471 286.231 364.815 286.229 372.16 286.241 C 375.907 286.247 379.655 286.248 383.402 286.236 C 387.464 286.224 391.525 286.234 395.587 286.247 C 396.773 286.239 397.959 286.232 399.18 286.224 C 406.268 286.271 410.913 286.897 416.425 291.683 C 420.135 298.391 417.867 307.279 416.425 314.496 C 416.158 315.85 416.158 315.85 415.885 317.232 C 408.305 354.101 389.972 389.869 360.05 413.621 C 359.518 414.048 358.987 414.476 358.439 414.916 C 340.499 429.241 320.936 439.097 299.05 445.871 C 298.304 446.105 297.559 446.34 296.791 446.581 C 282.893 450.688 269.162 452.155 254.737 451.996 C 253.977 451.991 253.216 451.987 252.432 451.982 C 227.087 451.801 203.909 446.771 181.05 435.621 C 180.417 435.314 179.785 435.008 179.133 434.692 C 166.257 428.36 154.759 420.493 144.269 410.683 C 142.293 408.846 140.26 407.143 138.175 405.433 C 118.528 388.203 104.429 363.178 96.654 338.511 C 96.103 336.788 95.507 335.081 94.905 333.375 C 92.668 326.795 91.353 320.222 90.3 313.371 C 90.172 312.543 90.044 311.715 89.912 310.862 C 87.911 296.76 87.911 296.76 90.017 292.806 C 93.874 287.929 97.298 286.372 103.367 286.366 Z" fill="#FEFDFD" style="stroke-width: 1;"/>
  <path d="M 390.55 169.621 C 405.905 182.721 416.51 202.227 418.405 222.406 C 419.169 237.657 413.774 252.273 404.362 264.308 C 396.511 272.838 387.231 278.469 375.612 279.121 C 367.272 278.83 361.304 275.323 355.675 269.308 C 349.448 261.691 347.151 254.169 345.05 244.621 C 344.53 245.369 344.011 246.116 343.476 246.887 C 342.778 247.871 342.081 248.856 341.362 249.871 C 340.678 250.845 339.993 251.82 339.288 252.824 C 336.394 256.441 333.837 259.224 329.237 260.246 C 321.104 258.651 314.298 250.649 309.05 244.621 C 307.802 240.876 307.426 237.504 308.05 233.621 C 311.254 228.495 315.888 225.323 320.612 221.633 C 325.789 217.36 329.341 212.791 332.05 206.621 C 331.36 206.667 330.671 206.714 329.96 206.762 C 320.765 207.115 314.767 205.123 307.737 199.183 C 301.771 193.608 298.577 189.138 297.612 180.871 C 297.847 173.637 301.916 167.508 306.675 162.308 C 311.226 158.066 316.233 155.703 322.05 153.621 C 322.733 153.375 323.416 153.129 324.12 152.875 C 346.793 146.429 372.542 155.852 390.55 169.621 Z" fill="#FEFDFD" style="stroke-width: 1;"/>
  <path d="M 199.249 110.617 C 208.925 115.49 217.05 123.533 221.05 133.621 C 224.723 144.84 221.977 158.568 217.175 168.933 C 211.236 179.819 200.83 187.063 189.05 190.621 C 180.605 192.683 170.947 193.099 163.132 188.937 C 153.594 182.906 145.624 175.296 142.491 164.086 C 140.464 152.767 142.485 142.755 148.694 133.051 C 150.385 130.799 152.156 128.704 154.05 126.621 C 154.584 126.007 155.117 125.394 155.667 124.762 C 166.891 112.625 182.969 105.548 199.249 110.617 Z" fill="#FEFDFD" style="stroke-width: 1;"/>
  <path d="M 255.71 180.984 C 259.469 183.613 262.505 186.804 265.05 190.621 C 265.05 191.281 265.05 191.941 265.05 192.621 C 266.04 192.291 267.03 191.961 268.05 191.621 C 273.262 191.122 277.654 190.949 282.425 193.246 C 290.725 200.756 290.725 200.756 291.288 205.723 C 291.471 211.935 290.71 216.504 287.05 221.621 C 282.031 226.389 277.878 227.833 271.05 228.621 C 269.267 233.97 269.865 239.712 269.862 245.308 C 269.85 246.563 269.838 247.818 269.825 249.111 C 269.815 255.676 270.165 261.336 272.05 267.621 C 272.3 271.496 272.3 271.496 272.05 274.621 C 268.82 277.851 264.732 278.392 260.3 278.996 C 258.05 278.621 258.05 278.621 256.546 276.941 C 254.909 274.402 253.916 271.951 252.862 269.121 C 250.08 262.293 246.403 256.547 242.05 250.621 C 241.405 249.639 240.761 248.656 240.097 247.644 C 237.904 244.674 236.156 242.634 233.05 240.621 C 229.526 240.217 226.388 240.219 222.871 240.444 C 217.75 240.757 214.591 240.425 210.534 237.23 C 206.655 233.024 204.856 228.781 204.612 223.058 C 204.92 217.293 206.584 212.662 210.925 208.746 C 213.93 206.703 215.568 206.176 219.05 205.621 C 218.992 204.92 218.934 204.218 218.874 203.496 C 218.537 196.397 219.33 192.012 224.05 186.621 C 233.214 177.1 243.796 174.416 255.71 180.984 Z" fill="#FEFDFC" style="stroke-width: 1;"/>
  <path d="M 316.675 102.308 C 317.546 102.291 318.417 102.273 319.314 102.254 C 328.982 102.267 337.423 104.55 344.71 111.117 C 348.298 114.79 350.208 118.152 350.484 123.34 C 349.633 127.813 346.528 130.864 343.05 133.621 C 336.311 136.98 328.919 136.106 321.737 134.621 C 314.064 133.1 305.703 131.984 298.425 135.246 C 292.466 141.205 291.759 145.341 291.292 153.558 C 290.986 157.429 290.545 159.597 288.05 162.621 C 282.068 166.772 276.297 168.803 269.05 167.621 C 262.198 166.061 256.713 162.51 252.726 156.687 C 249.398 150.323 248.946 143.654 250.05 136.621 C 254.838 123.792 268.054 115.229 280.003 109.721 C 292.111 104.523 303.511 102.49 316.675 102.308 Z" fill="#FEFCFC" style="stroke-width: 1;"/>
  <path d="M 116.05 184.621 C 116.823 185.116 116.823 185.116 117.612 185.621 C 120.83 186.941 123.607 186.753 127.05 186.621 C 127.39 187.549 127.39 187.549 127.737 188.496 C 129.429 191.235 131.042 191.671 134.05 192.621 C 134.05 193.611 134.05 194.601 134.05 195.621 C 136.525 196.116 136.525 196.116 139.05 196.621 C 138.995 197.299 138.939 197.977 138.882 198.676 C 138.847 203.667 139.213 206.607 142.46 210.543 C 145.98 213.896 149.389 217.067 154.05 218.621 C 154.627 218.312 155.205 218.002 155.8 217.683 C 159.223 216.067 161.261 216.14 165.05 216.621 C 175.596 221.125 182.426 227.614 189.472 236.433 C 199.495 248.935 210.182 262.029 222.491 272.316 C 224.05 273.621 224.05 273.621 226.05 275.621 C 226.05 276.611 226.05 277.601 226.05 278.621 C 212.007 279.927 198.21 271.124 186.096 265.118 C 183.086 263.639 180.06 262.202 177.027 260.773 C 153.081 249.371 153.081 249.371 148.05 237.621 C 147.258 232.909 148.164 228.955 150.05 224.621 C 143.37 222.197 137.046 221.3 129.987 221.246 C 129.237 221.232 128.487 221.219 127.714 221.205 C 125.34 221.187 125.34 221.187 122.05 221.621 C 121.39 222.611 120.73 223.601 120.05 224.621 C 117.694 225.027 117.694 225.027 114.862 225.121 C 109.832 225.443 106.547 226.416 102.05 228.621 C 100.05 229.288 98.05 229.954 96.05 230.621 C 94.703 231.259 93.362 231.914 92.05 232.621 C 91.215 231.662 91.215 231.662 90.362 230.683 C 87.829 228.424 86.367 227.989 83.05 227.621 C 83.362 225.746 83.362 225.746 84.05 223.621 C 85.04 222.961 86.03 222.301 87.05 221.621 C 87.78 219.058 87.78 219.058 88.05 216.621 C 89.04 216.621 90.03 216.621 91.05 216.621 C 91.38 215.301 91.71 213.981 92.05 212.621 C 93.164 212.683 94.277 212.745 95.425 212.808 C 96.621 212.747 97.817 212.685 99.05 212.621 C 99.71 211.631 100.37 210.641 101.05 209.621 C 102.143 209.807 103.236 209.992 104.362 210.183 C 107.986 210.879 107.986 210.879 111.05 209.621 C 113.391 209.899 115.726 210.226 118.05 210.621 C 118.71 212.271 119.37 213.921 120.05 215.621 C 120.872 215.598 121.695 215.575 122.542 215.551 C 128.969 215.447 134.86 215.707 141.124 217.183 C 143.046 217.695 143.046 217.695 145.05 217.621 C 136.924 210.637 130.764 207.412 120.05 205.621 C 118.05 204.621 118.05 204.621 117.05 201.808 C 116.555 200.231 116.555 200.231 116.05 198.621 C 115.412 197.274 114.757 195.933 114.05 194.621 C 114.71 193.961 115.37 193.301 116.05 192.621 C 115.763 190.282 115.431 187.947 115.05 185.621 C 115.38 185.291 115.71 184.961 116.05 184.621 Z" fill="#FEFAF9" style="stroke-width: 1;"/>
  <path d="M 253.05 45.621 C 256.612 49.803 259.356 54.269 262.112 58.996 C 262.546 59.726 262.98 60.455 263.427 61.207 C 269.646 71.808 273.547 82.739 270.402 95.187 C 266.319 105.22 256.04 116.156 246.237 120.683 C 243.298 121.548 241.087 121.897 238.05 121.621 C 238.655 113.701 240.542 106.337 242.612 98.683 C 243.262 96.258 243.909 93.832 244.554 91.406 C 244.984 89.811 244.984 89.811 245.423 88.184 C 246.129 85.737 246.129 85.737 246.05 83.621 C 242.09 95.501 238.13 107.381 234.05 119.621 C 224.523 113.905 220.788 103.087 218.05 92.621 C 216.586 82.919 219.018 76.146 224.706 68.351 C 232.414 59.027 242.922 52.059 253.05 45.621 Z" fill="#FEFCFB" style="stroke-width: 1;"/>
  <path d="M 178.987 316.683 C 185.684 320.92 191.944 325.659 194.05 333.621 C 195.21 343.158 193.767 350.36 188.253 358.164 C 183.76 363.175 177.482 366.059 170.878 367.14 C 164.344 367.364 159.47 366.268 154.05 362.621 C 152.72 361.755 152.72 361.755 151.362 360.871 C 145.208 354.882 142.928 348.833 142.737 340.371 C 142.839 331.313 145.777 326.445 152.073 320.164 C 159.314 314.511 170.304 313.447 178.987 316.683 Z" fill="#F52B0A" style="stroke-width: 1;"/>
  <path d="M 350.05 317.121 C 356.345 320.47 361.88 326.857 364.05 333.621 C 365.293 344.024 363.241 351.232 356.862 359.433 C 350.022 364.754 343.792 367.519 335.011 367.101 C 327.689 365.913 321.709 362.405 317.234 356.484 C 312.666 349.293 312.121 342.042 313.05 333.621 C 315.06 326.372 320.495 320.767 326.819 316.949 C 333.834 314.065 342.975 314.381 350.05 317.121 Z" fill="#EE5311" style="stroke-width: 1;"/>
  <path d="M 124.237 235.246 C 129.186 239.425 133.609 243.486 134.323 250.187 C 134.61 258.654 133.134 265.032 127.405 271.469 C 121.505 276.89 115.405 279.185 107.409 278.906 C 100.532 278.075 96.508 273.606 92.3 268.496 C 89.114 263.717 89.521 258.134 90.05 252.621 C 92.235 245.026 98.077 239.22 104.737 235.246 C 111.406 231.974 117.536 231.83 124.237 235.246 Z" fill="#FEFBFB" style="stroke-width: 1;"/>
  <path d="M 247.05 78.621 C 248.333 82.244 247.751 84.625 246.722 88.277 C 246.416 89.383 246.111 90.489 245.796 91.629 C 245.303 93.357 245.303 93.357 244.8 95.121 C 244.169 97.381 243.538 99.642 242.909 101.902 C 242.599 103.01 242.289 104.117 241.97 105.258 C 240.575 110.357 239.302 115.485 238.05 120.621 C 237.555 119.136 237.555 119.136 237.05 117.621 C 236.39 117.621 235.73 117.621 235.05 117.621 C 236.676 109.184 239.418 101.175 242.175 93.058 C 242.648 91.654 243.121 90.25 243.593 88.846 C 244.74 85.436 245.894 82.028 247.05 78.621 Z" fill="#F56D4B" style="stroke-width: 1;"/>
  <path d="M 345.05 243.621 C 345.38 243.621 345.71 243.621 346.05 243.621 C 346.71 247.581 347.37 251.541 348.05 255.621 C 347.39 255.621 346.73 255.621 346.05 255.621 C 345.39 253.641 344.73 251.661 344.05 249.621 C 343.06 250.611 342.07 251.601 341.05 252.621 C 340.39 252.291 339.73 251.961 339.05 251.621 C 340.025 250.285 341.005 248.952 341.987 247.621 C 342.805 246.507 342.805 246.507 343.64 245.371 C 344.105 244.793 344.57 244.216 345.05 243.621 Z" fill="#EF6022" style="stroke-width: 1;"/>
  <path d="M 238.05 109.621 C 238.38 109.621 238.71 109.621 239.05 109.621 C 239.336 117.05 239.336 117.05 237.05 120.621 C 237.05 119.631 237.05 118.641 237.05 117.621 C 236.39 117.621 235.73 117.621 235.05 117.621 C 235.8 111.871 235.8 111.871 238.05 109.621 Z" fill="#F4562F" style="stroke-width: 1;"/>
</svg>